<svg width="358" height="27" viewBox="0 0 358 27" fill="none" xmlns="http://www.w3.org/2000/svg">
<line opacity="0.2" x1="-4.35789e-08" y1="26.5" x2="358" y2="26.5" stroke="black"/>
<path d="M7.25852 3.81818H6.02557V8.33239H4.79261L2.14773 3.81818H0.65625L3.67898 8.69034L0.377841 14H1.76989L4.55398 9.4858H6.02557V14H7.25852V9.4858H8.73011L11.4943 14H12.9062L9.60511 8.71023L12.6477 3.81818H11.1562L8.51136 8.33239H7.25852V3.81818ZM16.6101 14.179C17.9425 14.179 18.6385 13.4631 18.8771 12.9659H18.9368V14H20.1101V8.96875C20.1101 6.54261 18.2607 6.2642 17.2862 6.2642C16.1328 6.2642 14.8203 6.66193 14.2237 8.05398L15.3374 8.4517C15.5959 7.89489 16.2074 7.2983 17.326 7.2983C18.4048 7.2983 18.9368 7.87003 18.9368 8.84943V8.8892C18.9368 9.45597 18.3601 9.40625 16.968 9.58523C15.5511 9.76918 14.005 10.0824 14.005 11.8324C14.005 13.3239 15.1584 14.179 16.6101 14.179ZM16.7891 13.125C15.8544 13.125 15.1783 12.7074 15.1783 11.892C15.1783 10.9972 15.9936 10.7188 16.9084 10.5994C17.4055 10.5398 18.7379 10.4006 18.9368 10.1619V11.2358C18.9368 12.1903 18.1811 13.125 16.7891 13.125ZM22.2516 14H23.4249V10.7784H24.4789L26.9846 14H28.4959L25.3738 10.0426L28.4561 6.36364H26.9448L24.2005 9.68466H23.4249V6.36364H22.2516V14ZM33.5036 9.08807H29.049V10.1818H33.5036V9.08807ZM35.7271 3.81818V14H36.9203L42.4686 6.00568H42.568V14H43.801V3.81818H42.6078L37.0396 11.8324H36.9402V3.81818H35.7271ZM46.109 14H49.7085C51.2596 14 52.1942 13.125 52.1942 11.9517C52.1942 10.7536 51.2844 10.1072 50.4442 9.98295C51.3043 9.80398 51.9158 9.32173 51.9158 8.39205C51.9158 7.17401 50.8718 6.36364 49.2312 6.36364H46.109V14ZM47.2227 12.9261V10.5795H49.7085C50.5138 10.5795 51.0011 11.0618 51.0011 11.8523C51.0011 12.5185 50.5138 12.9261 49.7085 12.9261H47.2227ZM47.2227 9.56534V7.4375H49.2312C50.1708 7.4375 50.7425 7.83026 50.7425 8.47159C50.7425 9.1527 50.1708 9.56534 49.2312 9.56534H47.2227ZM64.0527 14H65.5243L61.2686 8.29261L65.3851 3.81818H63.9135L59.8368 8.23295H59.2999V3.81818H58.0669V14H59.2999V9.3267H60.5527L64.0527 14ZM67.1538 16.8438C68.2127 16.8438 68.9634 16.282 69.4009 15.1136L72.6523 6.38352L71.3697 6.36364L69.2617 12.4489H69.1822L67.0742 6.36364H65.8015L68.6254 14.0398L68.4066 14.6364C67.989 15.7798 67.4521 15.8892 66.5969 15.6705L66.2987 16.7045C66.418 16.7642 66.756 16.8438 67.1538 16.8438ZM77.0336 14.1591C78.7239 14.1591 79.8375 13.125 80.0364 11.7727H78.8631C78.6444 12.608 77.9483 13.1051 77.0336 13.1051C75.6415 13.1051 74.7466 11.9517 74.7466 10.1818C74.7466 8.4517 75.6614 7.31818 77.0336 7.31818C78.0676 7.31818 78.6841 7.95455 78.8631 8.65057H80.0364C79.8375 7.21875 78.6245 6.2642 77.0137 6.2642C74.9455 6.2642 73.5733 7.89489 73.5733 10.2216C73.5733 12.5085 74.8858 14.1591 77.0336 14.1591ZM81.15 7.45739H83.6756V14H84.8489V7.45739H87.3546V6.36364H81.15V7.45739ZM91.7718 14.1591C93.84 14.1591 95.2321 12.5881 95.2321 10.2216C95.2321 7.83523 93.84 6.2642 91.7718 6.2642C89.7037 6.2642 88.3116 7.83523 88.3116 10.2216C88.3116 12.5881 89.7037 14.1591 91.7718 14.1591ZM91.7718 13.1051C90.2008 13.1051 89.4849 11.7528 89.4849 10.2216C89.4849 8.69034 90.2008 7.31818 91.7718 7.31818C93.3429 7.31818 94.0588 8.69034 94.0588 10.2216C94.0588 11.7528 93.3429 13.1051 91.7718 13.1051Z" fill="black"/>
</svg>
