<svg width="358" height="27" viewBox="0 0 358 27" fill="none" xmlns="http://www.w3.org/2000/svg">
<line opacity="0.2" x1="-4.35789e-08" y1="26.5" x2="358" y2="26.5" stroke="black"/>
<path d="M1.23295 3.81818V14H2.42614L7.97443 6.00568H8.07386V14H9.30682V3.81818H8.11364L2.54545 11.8324H2.44602V3.81818H1.23295ZM14.7172 14.1591C16.4075 14.1591 17.5211 13.125 17.72 11.7727H16.5467C16.3279 12.608 15.6319 13.1051 14.7172 13.1051C13.3251 13.1051 12.4302 11.9517 12.4302 10.1818C12.4302 8.4517 13.345 7.31818 14.7172 7.31818C15.7512 7.31818 16.3677 7.95455 16.5467 8.65057H17.72C17.5211 7.21875 16.3081 6.2642 14.6973 6.2642C12.6291 6.2642 11.2569 7.89489 11.2569 10.2216C11.2569 12.5085 12.5694 14.1591 14.7172 14.1591ZM22.5375 14.1591C24.2278 14.1591 25.3414 13.125 25.5403 11.7727H24.367C24.1483 12.608 23.4522 13.1051 22.5375 13.1051C21.1454 13.1051 20.2505 11.9517 20.2505 10.1818C20.2505 8.4517 21.1653 7.31818 22.5375 7.31818C23.5716 7.31818 24.188 7.95455 24.367 8.65057H25.5403C25.3414 7.21875 24.1284 6.2642 22.5176 6.2642C20.4494 6.2642 19.0772 7.89489 19.0772 10.2216C19.0772 12.5085 20.3897 14.1591 22.5375 14.1591ZM26.5794 14H26.9771C28.6674 14 29.1547 12.6875 29.264 10.1818L29.3833 7.45739H32.1873V14H33.3606V6.36364H28.2697L28.1305 9.74432C28.0311 12.3097 27.7725 12.9062 26.8578 12.9062H26.5794V14ZM38.715 14.1591C40.2662 14.1591 41.3997 13.3835 41.7576 12.2301L40.6241 11.9119C40.3258 12.7074 39.6348 13.1051 38.715 13.1051C37.3379 13.1051 36.3883 12.2152 36.3336 10.5795H41.877V10.0824C41.877 7.23864 40.1866 6.2642 38.5957 6.2642C36.5275 6.2642 35.1554 7.89489 35.1554 10.2415C35.1554 12.5881 36.5076 14.1591 38.715 14.1591ZM36.3336 9.56534C36.4132 8.37713 37.2534 7.31818 38.5957 7.31818C39.8684 7.31818 40.6838 8.27273 40.6838 9.56534H36.3336ZM42.8464 16.1875H44.0197V14H49.6674V16.1875H50.8407V12.9062H49.6674V6.36364H44.8152L44.5566 9.38636C44.3727 11.5241 44.0993 12.2599 43.4828 12.9062H42.8464V16.1875ZM44.8152 12.9062C45.3521 12.2003 45.546 10.9822 45.71 9.38636L45.9089 7.45739H48.4941V12.9062H44.8152ZM55.5004 14.1591C57.5685 14.1591 58.9606 12.5881 58.9606 10.2216C58.9606 7.83523 57.5685 6.2642 55.5004 6.2642C53.4322 6.2642 52.0401 7.83523 52.0401 10.2216C52.0401 12.5881 53.4322 14.1591 55.5004 14.1591ZM55.5004 13.1051C53.9293 13.1051 53.2134 11.7528 53.2134 10.2216C53.2134 8.69034 53.9293 7.31818 55.5004 7.31818C57.0714 7.31818 57.7873 8.69034 57.7873 10.2216C57.7873 11.7528 57.0714 13.1051 55.5004 13.1051ZM60.7516 14H64.351C65.9022 14 66.8368 13.125 66.8368 11.9517C66.8368 10.7536 65.927 10.1072 65.0868 9.98295C65.9469 9.80398 66.5584 9.32173 66.5584 8.39205C66.5584 7.17401 65.5144 6.36364 63.8738 6.36364H60.7516V14ZM61.8652 12.9261V10.5795H64.351C65.1564 10.5795 65.6436 11.0618 65.6436 11.8523C65.6436 12.5185 65.1564 12.9261 64.351 12.9261H61.8652ZM61.8652 9.56534V7.4375H63.8738C64.8134 7.4375 65.3851 7.83026 65.3851 8.47159C65.3851 9.1527 64.8134 9.56534 63.8738 9.56534H61.8652ZM70.8601 14.179C72.1925 14.179 72.8885 13.4631 73.1271 12.9659H73.1868V14H74.3601V8.96875C74.3601 6.54261 72.5107 6.2642 71.5362 6.2642C70.3828 6.2642 69.0703 6.66193 68.4737 8.05398L69.5874 8.4517C69.8459 7.89489 70.4574 7.2983 71.576 7.2983C72.6548 7.2983 73.1868 7.87003 73.1868 8.84943V8.8892C73.1868 9.45597 72.6101 9.40625 71.218 9.58523C69.8011 9.76918 68.255 10.0824 68.255 11.8324C68.255 13.3239 69.4084 14.179 70.8601 14.179ZM71.0391 13.125C70.1044 13.125 69.4283 12.7074 69.4283 11.892C69.4283 10.9972 70.2436 10.7188 71.1584 10.5994C71.6555 10.5398 72.9879 10.4006 73.1868 10.1619V11.2358C73.1868 12.1903 72.4311 13.125 71.0391 13.125ZM75.4625 7.45739H77.9881V14H79.1614V7.45739H81.6671V6.36364H75.4625V7.45739ZM86.1838 14.1591C87.7349 14.1591 88.8684 13.3835 89.2264 12.2301L88.0929 11.9119C87.7946 12.7074 87.1035 13.1051 86.1838 13.1051C84.8066 13.1051 83.8571 12.2152 83.8024 10.5795H89.3457V10.0824C89.3457 7.23864 87.6554 6.2642 86.0645 6.2642C83.9963 6.2642 82.6241 7.89489 82.6241 10.2415C82.6241 12.5881 83.9764 14.1591 86.1838 14.1591ZM83.8024 9.56534C83.8819 8.37713 84.7221 7.31818 86.0645 7.31818C87.3372 7.31818 88.1525 8.27273 88.1525 9.56534H83.8024ZM90.4544 14H90.8521C92.5424 14 93.0297 12.6875 93.139 10.1818L93.2583 7.45739H96.0623V14H97.2356V6.36364H92.1447L92.0055 9.74432C91.9061 12.3097 91.6475 12.9062 90.7328 12.9062H90.4544V14ZM100.562 9.12784V6.36364H99.3883V14H102.59C104.38 14 105.354 12.9062 105.354 11.5341C105.354 10.142 104.38 9.12784 102.59 9.12784H100.562ZM100.562 10.2216H102.59C103.52 10.2216 104.181 10.7884 104.181 11.5938C104.181 12.3643 103.52 12.9062 102.59 12.9062H100.562V10.2216ZM114.18 14.1591C116.248 14.1591 117.64 12.5881 117.64 10.2216C117.64 7.83523 116.248 6.2642 114.18 6.2642C112.112 6.2642 110.72 7.83523 110.72 10.2216C110.72 12.5881 112.112 14.1591 114.18 14.1591ZM114.18 13.1051C112.609 13.1051 111.893 11.7528 111.893 10.2216C111.893 8.69034 112.609 7.31818 114.18 7.31818C115.751 7.31818 116.467 8.69034 116.467 10.2216C116.467 11.7528 115.751 13.1051 114.18 13.1051ZM119.431 14H120.605V10.7784H121.659L124.164 14H125.676L122.553 10.0426L125.636 6.36364H124.124L121.38 9.68466H120.605V6.36364H119.431V14ZM129.838 14.1591C131.389 14.1591 132.523 13.3835 132.881 12.2301L131.747 11.9119C131.449 12.7074 130.758 13.1051 129.838 13.1051C128.461 13.1051 127.511 12.2152 127.457 10.5795H133V10.0824C133 7.23864 131.31 6.2642 129.719 6.2642C127.651 6.2642 126.278 7.89489 126.278 10.2415C126.278 12.5881 127.631 14.1591 129.838 14.1591ZM127.457 9.56534C127.536 8.37713 128.376 7.31818 129.719 7.31818C130.991 7.31818 131.807 8.27273 131.807 9.56534H127.457ZM137.032 14.179C138.364 14.179 139.06 13.4631 139.299 12.9659H139.359V14H140.532V8.96875C140.532 6.54261 138.683 6.2642 137.708 6.2642C136.555 6.2642 135.242 6.66193 134.646 8.05398L135.759 8.4517C136.018 7.89489 136.629 7.2983 137.748 7.2983C138.827 7.2983 139.359 7.87003 139.359 8.84943V8.8892C139.359 9.45597 138.782 9.40625 137.39 9.58523C135.973 9.76918 134.427 10.0824 134.427 11.8324C134.427 13.3239 135.58 14.179 137.032 14.179ZM137.211 13.125C136.276 13.125 135.6 12.7074 135.6 11.892C135.6 10.9972 136.415 10.7188 137.33 10.5994C137.827 10.5398 139.16 10.4006 139.359 10.1619V11.2358C139.359 12.1903 138.603 13.125 137.211 13.125ZM143.847 6.36364H142.673V14H143.847V10.7386H147.506V14H148.679V6.36364H147.506V9.64489H143.847V6.36364ZM153.069 14.179C154.401 14.179 155.097 13.4631 155.336 12.9659H155.396V14H156.569V8.96875C156.569 6.54261 154.72 6.2642 153.745 6.2642C152.592 6.2642 151.279 6.66193 150.683 8.05398L151.796 8.4517C152.055 7.89489 152.666 7.2983 153.785 7.2983C154.864 7.2983 155.396 7.87003 155.396 8.84943V8.8892C155.396 9.45597 154.819 9.40625 153.427 9.58523C152.01 9.76918 150.464 10.0824 150.464 11.8324C150.464 13.3239 151.617 14.179 153.069 14.179ZM153.248 13.125C152.313 13.125 151.637 12.7074 151.637 11.892C151.637 10.9972 152.453 10.7188 153.367 10.5994C153.865 10.5398 155.197 10.4006 155.396 10.1619V11.2358C155.396 12.1903 154.64 13.125 153.248 13.125Z" fill="black"/>
</svg>
